<?xml version="1.0" encoding="utf-8"?>
<!-- Generator: Adobe Illustrator 21.0.2, SVG Export Plug-In . SVG Version: 6.00 Build 0)  -->
<svg version="1.1" id="Layer_1" xmlns="http://www.w3.org/2000/svg" xmlns:xlink="http://www.w3.org/1999/xlink" x="0px" y="0px"
	 viewBox="0 0 547.5 274.5" style="enable-background:new 0 0 547.5 274.5;" xml:space="preserve">
<style type="text/css">
	.st0{fill:#98C21F;}
	.st1{fill:#FFFFFF;}
</style>
<g>
	<g>
		<g>
			
				<rect x="162.2" y="-124.6" transform="matrix(8.715421e-02 -0.9962 0.9962 8.715421e-02 113.1996 397.9936)" class="st0" width="223.2" height="523.6"/>
		</g>
		<g>
			<g>
				<polygon class="st1" points="546.8,54.1 540.9,53.6 541,51.6 539,51.4 539.6,45.5 547.5,46.2 				"/>
			</g>
			<g>
				<path class="st1" d="M529,50.6l-10-0.9l0.5-6l10,0.9L529,50.6z M508.9,48.8l-10-0.9l0.5-6l10,0.9L508.9,48.8z M488.9,47l-10-0.9
					l0.5-6l10,0.9L488.9,47z M468.8,45.3l-10-0.9l0.5-6l10,0.9L468.8,45.3z M448.8,43.5l-10-0.9l0.5-6l10,0.9L448.8,43.5z
					 M428.7,41.8l-10-0.9l0.5-6l10,0.9L428.7,41.8z M408.6,40l-10-0.9l0.5-6l10,0.9L408.6,40z M388.6,38.3l-10-0.9l0.5-6l10,0.9
					L388.6,38.3z M368.5,36.5l-10-0.9l0.5-6l10,0.9L368.5,36.5z M348.4,34.8l-10-0.9l0.5-6l10,0.9L348.4,34.8z M328.4,33l-10-0.9
					l0.5-6l10,0.9L328.4,33z M308.3,31.2l-10-0.9l0.5-6l10,0.9L308.3,31.2z M288.2,29.5l-10-0.9l0.5-6l10,0.9L288.2,29.5z
					 M268.2,27.7l-10-0.9l0.5-6l10,0.9L268.2,27.7z M248.1,26l-10-0.9l0.5-6l10,0.9L248.1,26z M228.1,24.2l-10-0.9l0.5-6l10,0.9
					L228.1,24.2z M208,22.5l-10-0.9l0.5-6l10,0.9L208,22.5z M187.9,20.7l-10-0.9l0.5-6l10,0.9L187.9,20.7z M167.9,19l-10-0.9l0.5-6
					l10,0.9L167.9,19z M147.8,17.2l-10-0.9l0.5-6l10,0.9L147.8,17.2z M127.7,15.5l-10-0.9l0.5-6l10,0.9L127.7,15.5z M107.7,13.7
					l-10-0.9l0.5-6l10,0.9L107.7,13.7z M87.6,11.9l-10-0.9l0.5-6l10,0.9L87.6,11.9z M67.5,10.2l-10-0.9l0.5-6l10,0.9L67.5,10.2z
					 M47.5,8.4l-10-0.9l0.5-6l10,0.9L47.5,8.4z"/>
			</g>
			<g>
				<polygon class="st1" points="25.3,8.5 19.3,8 20,0 27.9,0.7 27.4,6.7 25.4,6.5 				"/>
			</g>
			<g>
				<path class="st1" d="M7.6,210.7l-6-0.5l0.9-10.1l6,0.5L7.6,210.7z M9.3,190.5l-6-0.5l0.9-10.1l6,0.5L9.3,190.5z M11.1,170.3
					l-6-0.5L6,159.7l6,0.5L11.1,170.3z M12.9,150.1l-6-0.5l0.9-10.1l6,0.5L12.9,150.1z M14.6,129.8l-6-0.5l0.9-10.1l6,0.5
					L14.6,129.8z M16.4,109.6l-6-0.5L11.3,99l6,0.5L16.4,109.6z M18.2,89.4l-6-0.5l0.9-10.1l6,0.5L18.2,89.4z M19.9,69.2l-6-0.5
					l0.9-10.1l6,0.5L19.9,69.2z M21.7,48.9l-6-0.5l0.9-10.1l6,0.5L21.7,48.9z M23.5,28.7l-6-0.5l0.9-10.1l6,0.5L23.5,28.7z"/>
			</g>
			<g>
				<polygon class="st1" points="8,229 0,228.3 0.7,220.3 6.7,220.9 6.5,222.8 8.5,223 				"/>
			</g>
			<g>
				<path class="st1" d="M509.6,272.9l-10-0.9l0.5-6l10,0.9L509.6,272.9z M489.5,271.1l-10-0.9l0.5-6l10,0.9L489.5,271.1z
					 M469.4,269.4l-10-0.9l0.5-6l10,0.9L469.4,269.4z M449.4,267.6l-10-0.9l0.5-6l10,0.9L449.4,267.6z M429.3,265.9l-10-0.9l0.5-6
					l10,0.9L429.3,265.9z M409.2,264.1l-10-0.9l0.5-6l10,0.9L409.2,264.1z M389.2,262.4l-10-0.9l0.5-6l10,0.9L389.2,262.4z
					 M369.1,260.6l-10-0.9l0.5-6l10,0.9L369.1,260.6z M349,258.8l-10-0.9l0.5-6l10,0.9L349,258.8z M329,257.1l-10-0.9l0.5-6l10,0.9
					L329,257.1z M308.9,255.3l-10-0.9l0.5-6l10,0.9L308.9,255.3z M288.9,253.6l-10-0.9l0.5-6l10,0.9L288.9,253.6z M268.8,251.8
					l-10-0.9l0.5-6l10,0.9L268.8,251.8z M248.7,250.1l-10-0.9l0.5-6l10,0.9L248.7,250.1z M228.7,248.3l-10-0.9l0.5-6l10,0.9
					L228.7,248.3z M208.6,246.6l-10-0.9l0.5-6l10,0.9L208.6,246.6z M188.5,244.8l-10-0.9l0.5-6l10,0.9L188.5,244.8z M168.5,243
					l-10-0.9l0.5-6l10,0.9L168.5,243z M148.4,241.3l-10-0.9l0.5-6l10,0.9L148.4,241.3z M128.4,239.5l-10-0.9l0.5-6l10,0.9
					L128.4,239.5z M108.3,237.8l-10-0.9l0.5-6l10,0.9L108.3,237.8z M88.2,236l-10-0.9l0.5-6l10,0.9L88.2,236z M68.2,234.3l-10-0.9
					l0.5-6l10,0.9L68.2,234.3z M48.1,232.5l-10-0.9l0.5-6l10,0.9L48.1,232.5z M28,230.8l-10-0.9l0.5-6l10,0.9L28,230.8z"/>
			</g>
			<g>
				<polygon class="st1" points="527.6,274.5 519.6,273.8 520.1,267.8 522.1,268 522.3,266 528.3,266.5 				"/>
			</g>
			<g>
				<path class="st1" d="M529.1,256.4l-6-0.5l0.9-10.1l6,0.5L529.1,256.4z M530.9,236.2l-6-0.5l0.9-10.1l6,0.5L530.9,236.2z
					 M532.7,215.9l-6-0.5l0.9-10.1l6,0.5L532.7,215.9z M534.4,195.7l-6-0.5l0.9-10.1l6,0.5L534.4,195.7z M536.2,175.5l-6-0.5
					l0.9-10.1l6,0.5L536.2,175.5z M538,155.3l-6-0.5l0.9-10.1l6,0.5L538,155.3z M539.8,135l-6-0.5l0.9-10.1l6,0.5L539.8,135z
					 M541.5,114.8l-6-0.5l0.9-10.1l6,0.5L541.5,114.8z M543.3,94.6l-6-0.5l0.9-10.1l6,0.5L543.3,94.6z M545.1,74.3l-6-0.5l0.9-10.1
					l6,0.5L545.1,74.3z"/>
			</g>
		</g>
	</g>
	<g>
		<g>
			<path class="st1" d="M84.4,96.8l-32.7-2.9l2.9-33.5c0,0,10.2-0.5,16.6,0c8.4,0.7,17,3.5,16.1,13.3l-1.3,14.6L84.4,96.8z
				 M74.5,72.5c0.2-2-1.8-2.8-4.9-3c-0.4,0-2.7,0-2.7,0l-1.5,17.1l7.8,0.7L74.5,72.5z"/>
		</g>
		<g>
			<path class="st1" d="M95.2,85.8l1.2-13.9l-4.9-0.4l1.7-8.5l16.9,1.5l-1.8,20.3L95.2,85.8z"/>
		</g>
		<g>
			<path class="st1" d="M133.2,101l-21.6-1.9l0.7-8.5l9.6,0.8l1.2-13.7c0.2-2.6-0.7-3.5-2.6-3.6c-1.6-0.1-6.2,0-6.2,0l0.7-8.5
				c0,0,5.4-1,10-0.6c6.6,0.6,12,2.7,11.1,13.1L135,92.6L133.2,101z"/>
		</g>
		<g>
			<path class="st1" d="M142.7,101.9l2.3-25.8l-4.9-0.4l1.7-8.5l16.9,1.5l-3,34.3L142.7,101.9z"/>
		</g>
		<g>
			<path class="st1" d="M178.6,105l2-22.7c0.2-2.8-3.3-3.5-4.8-3.6c-5.1-0.4-13.4-0.1-13.4-0.1l0.8-8.8c0,0,8-0.7,14.4-0.2
				c8.4,0.7,17,3.5,16.1,13.3l-2,23.2L178.6,105z"/>
		</g>
		<g>
			<path class="st1" d="M219.8,108.6l2-23.2c0.2-2-1.8-2.8-4.9-3c-0.4,0-2.7-0.1-2.7-0.1l-2.2,25.7l-13-1.1l2.9-33.5
				c0,0,10.2-0.5,16.6,0c8.4,0.7,17,3.5,16.1,13.3l-2,23.2L219.8,108.6z"/>
		</g>
		<g>
			<path class="st1" d="M260.2,112.1l-8.1-18c0,0-0.6,5.8-1.1,8.5l-1.7,8.5l-12.7-1.1l7.8-26.7l-4.2-7.6l14.8,1.3l6.1,14.3
				c0,0,0.8-3.9,1.2-5.4l2.1-8l12.7,1.1l-8.9,22.6l6.5,11.7L260.2,112.1z"/>
		</g>
		<g>
			<path class="st1" d="M321,117.5l2-22.7c0.2-2-1.7-3.3-4.8-3.6c-0.4,0-2.7-0.1-2.7-0.1l-1.4,15.8c-0.8,9.3-6.8,10-12.9,9.5
				c-4.7-0.4-7-1.6-7-1.6l1.8-8.4c0,0,1.1,0.4,2.7,0.6c1.2,0.1,2.3-0.1,2.5-2l1.3-15.2l-4.9-0.4l1.8-8.1c0,0,12.5,0.2,20.4,0.9
				c8.4,0.7,17,3.5,16.1,13.3l-2,23.2L321,117.5z"/>
		</g>
		<g>
			<path class="st1" d="M343.1,119.4l2.3-25.8l-4.9-0.4l1.7-8.5l16.9,1.5l-3,34.3L343.1,119.4z"/>
		</g>
		<g>
			<path class="st1" d="M396.3,124l-16.2-1.4l0.7-8.5l4.2,0.4l1.2-14.1c0.2-1.9-0.7-2.7-2.2-2.8c-2.2-0.2-5.4,0.8-5.4,0.8l-4.5,23.7
				l-13-1.1l5.3-25.5l-1.5-8.7l12.8,1.1l0.4,2.8c0,0,6-2.9,12-2.4c5.7,0.5,9.9,3.4,9.3,11.1l-1.4,16.2L396.3,124z"/>
		</g>
		<g>
			<path class="st1" d="M406.4,124.9l2.3-25.8l-4.9-0.4l1.7-8.5l16.9,1.5l-3,34.3L406.4,124.9z"/>
		</g>
		<g>
			<path class="st1" d="M426.2,137.7l2.6-29.3l13,0l-2.7,30.4L426.2,137.7z M456.5,129.3l-13.5-1.2l8.4-25.2l-22-1.9l0.7-8.5l34,3
				l-0.7,7.6L456.5,129.3z"/>
		</g>
		<g>
			<path class="st1" d="M499.2,133l-16.2-1.4l0.7-8.5l4.2,0.4l1.2-14.1c0.2-1.9-0.7-2.7-2.2-2.8c-2.2-0.2-5.4,0.8-5.4,0.8l-4.5,23.7
				l-13-1.1l5.3-25.5l-1.5-8.7l12.8,1.1l0.4,2.8c0,0,6-2.9,12-2.4c5.7,0.5,9.9,3.4,9.3,11.1l-1.4,16.2L499.2,133z"/>
		</g>
		<g>
			<path class="st1" d="M87.8,180.4l-25.7-2.2l0.6-6.9l9.3-6.6c3.9-2.8,8.1-5.8,8.4-9.7c0.3-3.6-1.4-6-5.8-6.4
				c-4-0.4-9.6,0.6-9.6,0.6l0.5-6.3c0,0,5.3-1.2,10.7-0.7c8.5,0.7,14.1,4.1,13.3,12.9c-0.7,8.2-8,12.1-12.7,14.8l-4.6,2.6
				c0,0,2.6-0.2,5.8,0.1l11.3,1L87.8,180.4z"/>
		</g>
		<g>
			<path class="st1" d="M122.6,165.1c-1.4,16.3-8.6,18.2-15.2,17.6c-6.7-0.6-13.4-3.7-12-20c1.4-16.3,8.6-18.2,15.2-17.6
				C117.4,145.8,124.1,148.9,122.6,165.1z M113.6,164.4c1-11.7-2.2-12.6-3.5-12.7c-1.2-0.1-4.6,0.3-5.6,11.9
				c-1,11.9,2.2,12.6,3.5,12.7C109.2,176.4,112.5,176.2,113.6,164.4z"/>
		</g>
		<g>
			<path class="st1" d="M151.6,185.9l-23.4-2l0.6-6.9l7.6,0.7l1.8-20.4l-7.8,2.4l-0.2-7.3l10.8-4l7.1,0.6l-2.6,29.3l7.6,0.7
				L151.6,185.9z"/>
		</g>
		<g>
			<path class="st1" d="M187.1,158.8c-8.4,9.2-10.8,13.2-12.1,28.3l-0.1,0.9l-9.1-0.8l0.1-1c1.2-13.3,3.9-20,12.6-27.4l-16.1-1.4
				l1.4-6.9l23.8,2.1L187.1,158.8z"/>
		</g>
		<g>
			<path class="st1" d="M212.6,180l1.4-16.2l-4.7-0.4l1.4-6.9l13,1.1l-1.9,22.1L212.6,180z"/>
		</g>
		<g>
			<path class="st1" d="M248.1,194.4L238,174.1c0,0-0.8,5.2-1,6.4l-2.5,12.7l-9.3-0.8l7.6-26.9l-3.6-7.3l10.1,0.9l7.6,16.5
				c0,0,1.3-6.8,1.7-8.3l2.1-7.3l8.7,0.8L252,184l6.3,11.3L248.1,194.4z"/>
		</g>
		<g>
			<path class="st1" d="M291.8,198.2l-13.4-1.2l0.6-6.9l5.2,0.5l1.5-17.3c0.2-2.5-0.7-3.3-3.6-3.6c-3.9-0.3-8,1.5-8,1.5l-3.5,25.2
				l-9.1-0.8l4.4-26.8l-0.8-7.4l8.2,0.7l0.5,3.4c0,0,6.7-3.5,12.2-3c5.7,0.5,9.3,3.4,8.6,11.1l-1.6,17.8L291.8,198.2z"/>
		</g>
		<g>
			<path class="st1" d="M347,175.4l-5-0.4l-2.4,27.4l-9.1-0.8l2.4-27.4l-14.9-1.3l0.6-6.9l29.8,2.6L347,175.4z"/>
		</g>
		<g>
			<path class="st1" d="M382.9,189.6c-1.1,12.8-7.3,16-18.9,15l-13.7-1.2l1.4-6.9l6,0.5l-4.4-28l9.1,0.8l2.2,17
				c0.5,3.7,0.7,10.9,0.7,10.9l1,0.1c5.2,0.5,7-2.3,7.6-9.3l1.5-17.5l9.1,0.8L382.9,189.6z"/>
		</g>
		<g>
			<path class="st1" d="M392.4,207l2.4-27.4l-4.7-0.4l1.4-6.9l13,1.1l-3,34.3L392.4,207z"/>
		</g>
		<g>
			<path class="st1" d="M438.8,211.1l-13.4-1.2l0.6-6.9l5.2,0.5l1.5-17.3c0.2-2.5-0.7-3.3-3.6-3.6c-3.9-0.3-8,1.5-8,1.5l-3.5,25.2
				l-9.1-0.8l4.4-26.8l-0.8-7.4l8.2,0.7l0.5,3.4c0,0,6.7-3.5,12.2-3c5.7,0.5,9.3,3.4,8.6,11.1l-1.6,17.8L438.8,211.1z"/>
		</g>
		<g>
			<path class="st1" d="M475.2,196.4c-1.2,13.7-9.9,17.3-16,16.8c-3.5-0.3-9-1.1-9-1.1l1.4-6.9c0,0,4.1,0.5,6.3,0.7
				c5.2,0.5,7.6-2.5,8.3-10.3l0.8-9.6l-18.8-1.6l1.4-16l9.1,0.8l-0.8,9.1l18.8,1.6L475.2,196.4z"/>
		</g>
	</g>
</g>
</svg>
